PathFileType  4	(X/Y/Z) C:\Users\antoi\Documents\MyRepositories\mobilecap\ResultsAnalysis
DataRate	CameraRate	NumFrames	NumMarkers	Units	OrigDataRate	OrigDataStartFrame	OrigNumFrames
100.0	100.0	6	51	mm	100.0	888	1774
Frame#	Time	r_knee			r_shank_antsup			r_ankle			r_calc			r_5meta			r_toe			L_knee			L_shank_antsup			L_ankle			L_calc			L_5meta			L_toe			r_sh2			r_sh3			r_sh4			L_sh2			L_sh3			r_thigh1			r_thigh2			r_thigh3			r_thigh4			r_thigh5			L_thigh1			L_thigh2			L_thigh3			L_thigh4			r.ASIS			r.PSIS			L.ASIS			L.PSIS			C7			R_Shoulder			L_Shoulder			R_Sternum			L_Sternum			R_humerus			R_elbow_med			R_elbow_lat			R_forearm			R_wrist_radius			R_wrist_ulna			L_humerus			L_elbow_med			L_elbow_lat			L_forearm			L_wrist_radius			L_wrist_ulna			R_HJC			L_HJC			R_HJC_reg			L_HJC_reg			
		X1	Y1	Z1	X2	Y2	Z2	X3	Y3	Z3	X4	Y4	Z4	X5	Y5	Z5	X6	Y6	Z6	X7	Y7	Z7	X8	Y8	Z8	X9	Y9	Z9	X10	Y10	Z10	X11	Y11	Z11	X12	Y12	Z12	X13	Y13	Z13	X14	Y14	Z14	X15	Y15	Z15	X16	Y16	Z16	X17	Y17	Z17	X18	Y18	Z18	X19	Y19	Z19	X20	Y20	Z20	X21	Y21	Z21	X22	Y22	Z22	X23	Y23	Z23	X24	Y24	Z24	X25	Y25	Z25	X26	Y26	Z26	X27	Y27	Z27	X28	Y28	Z28	X29	Y29	Z29	X30	Y30	Z30	X31	Y31	Z31	X32	Y32	Z32	X33	Y33	Z33	X34	Y34	Z34	X35	Y35	Z35	X36	Y36	Z36	X37	Y37	Z37	X38	Y38	Z38	X39	Y39	Z39	X40	Y40	Z40	X41	Y41	Z41	X42	Y42	Z42	X43	Y43	Z43	X44	Y44	Z44	X45	Y45	Z45	X46	Y46	Z46	X47	Y47	Z47	X48	Y48	Z48	X49	Y49	Z49	X50	Y50	Z50	X51	Y51	Z51	

888	8.87000000	-205.60983	498.46674	-433.70452	-173.58835	402.07282	-436.15678	-293.67594	92.80692	-434.41372	-358.24298	59.80897	-478.39281	-171.35277	44.29845	-403.19488	-141.91240	70.95177	-460.41510	-209.31069	504.72049	-772.60994	-169.54626	415.65438	-763.27283	-283.69298	98.35777	-776.76043	-359.22079	56.10539	-731.49013	-178.71329	40.45574	-810.29688	-133.46163	64.94565	-752.33310	-198.14316	290.74753	-434.94843	-236.86867	414.29654	-396.87800	-266.69851	304.09350	-391.28629	-246.53566	444.98137	-805.41534	-271.92937	325.62386	-816.11992	-233.12778	778.61237	-420.31869	-195.75636	674.97178	-432.28773	-234.54032	631.33211	-398.77073	-335.85610	735.70632	-399.23506	-289.09670	630.14927	-412.02663	-302.78254	721.89983	-810.68428	-161.23290	627.34173	-750.30820	-209.62934	758.01220	-765.04614	-258.77501	597.32698	-788.49049	-231.08425	939.89999	-473.20417	-425.44337	1008.96818	-552.45298	-233.64391	945.98960	-724.11759	-422.75569	1011.25995	-647.37102	-242.00697	1443.16017	-596.65409	-177.11434	1401.27557	-431.28828	-160.11150	1393.54028	-743.41665	-135.55991	1345.02616	-565.07775	-134.04654	1345.67561	-612.46175	-165.13132	1271.72204	-371.29928	-283.85049	1088.24258	-399.61351	-273.88610	1095.19655	-324.92951	-177.52465	1100.24541	-335.71884	-36.06364	1109.62146	-421.07135	-36.46904	1069.04709	-392.67326	-159.92829	1256.11087	-805.64078	-272.52182	1078.96382	-770.47762	-249.34667	1087.07188	-850.88246	-174.03049	1096.77376	-844.59684	-22.43815	1114.60128	-770.46343	-24.55550	1071.97721	-799.91854	-327.67854	869.01168	-499.72560	-325.92776	873.78992	-689.21967	-318.25061	878.23213	-512.46312	-313.56329	882.22773	-678.00886	
889	8.88000000	-205.53644	497.69802	-433.45513	-173.04075	401.37648	-435.99601	-294.07139	92.59227	-434.22280	-358.46737	59.22821	-478.34817	-171.43609	44.23555	-403.28702	-142.13898	71.05734	-460.46573	-209.41294	504.18044	-773.22768	-169.34368	415.05860	-764.00829	-283.93982	98.01453	-776.62228	-359.34842	55.68193	-731.75694	-178.76467	40.46647	-810.30212	-133.60450	65.00632	-752.31305	-197.79007	290.18779	-434.95439	-236.13228	413.69030	-396.39343	-266.40215	303.31584	-390.81361	-246.16328	443.75930	-804.90753	-271.72593	324.61390	-816.03610	-239.02520	777.14034	-419.33546	-199.66724	674.50514	-431.46134	-237.47208	629.46471	-398.08322	-340.87503	732.14119	-398.70772	-291.98625	627.66342	-411.31994	-307.74500	719.24822	-811.05596	-164.02821	627.83385	-750.72301	-215.52746	757.30696	-765.20007	-260.85684	595.64229	-789.09377	-237.64633	935.26355	-472.79956	-431.15899	1007.21315	-551.76856	-240.85272	941.08355	-723.91379	-428.65849	1009.48694	-646.44177	-236.63623	1436.99891	-595.71802	-171.44873	1393.76948	-431.03167	-155.05127	1385.64863	-741.96408	-132.35139	1336.22120	-564.37926	-130.73810	1336.86979	-611.67922	-161.03050	1264.27670	-371.43546	-282.17041	1082.05173	-399.58463	-272.51348	1089.12153	-324.66658	-175.99343	1093.71194	-335.40434	-34.50452	1103.35416	-420.32426	-34.99001	1062.70934	-392.22530	-156.45775	1248.63941	-804.03072	-272.11680	1071.52864	-771.18108	-248.66759	1081.18728	-850.23967	-173.33874	1090.42775	-843.93328	-22.11070	1107.87375	-770.81748	-24.04038	1065.14895	-799.79964	-335.42421	865.85173	-499.05574	-334.15724	870.40505	-688.55924	-325.90727	874.64409	-511.91760	-321.53081	878.62284	-677.60600	
890	8.89000000	-205.65472	497.06435	-433.07138	-172.64978	400.49933	-436.01508	-294.43885	92.19199	-433.92505	-358.73293	58.50594	-478.30087	-171.59846	44.20605	-403.36660	-142.44066	71.18066	-460.41846	-209.45228	503.88702	-774.59739	-169.24542	414.39433	-764.84241	-284.27909	97.59146	-776.43777	-359.54035	55.02391	-731.74012	-178.82904	40.46594	-810.31056	-133.81795	65.11945	-752.25529	-197.58558	289.42635	-434.85639	-235.36358	412.71933	-396.20089	-266.15529	302.51728	-390.54803	-245.97708	442.90601	-805.34052	-271.68678	324.07774	-816.47094	-245.02751	775.27666	-418.41848	-203.65431	673.70089	-430.68692	-240.53850	627.96440	-397.21522	-346.09408	728.42413	-398.06879	-294.99110	624.92034	-410.72685	-312.76193	716.42031	-811.43669	-167.04514	628.70645	-751.72570	-221.54118	756.53638	-765.35207	-262.97205	593.87249	-789.54467	-244.16487	930.18466	-472.35677	-436.69902	1005.16988	-551.17252	-248.15440	935.80915	-723.78115	-434.48499	1007.44940	-645.63349	-231.59817	1430.14474	-594.68631	-166.10324	1385.63295	-430.73210	-150.38429	1377.03746	-740.39666	-129.36242	1326.81248	-563.50890	-127.65647	1327.40847	-610.79242	-157.13155	1256.07818	-371.73233	-280.92752	1075.23605	-399.54831	-271.27648	1082.11474	-324.32952	-174.63809	1086.48147	-335.01665	-33.11274	1096.53710	-419.56606	-33.65798	1055.68372	-391.81776	-153.17090	1240.36975	-802.38077	-272.02779	1062.27387	-772.89927	-248.19108	1074.59317	-849.67722	-172.76326	1083.37223	-843.46411	-22.31724	1100.65062	-771.53378	-23.72722	1057.74830	-799.70123	-343.20016	862.37297	-498.44562	-342.43018	866.71419	-687.95691	-333.53694	870.68629	-511.26838	-329.64829	874.69139	-677.17646	
891	8.90000000	-205.99417	496.19966	-432.83586	-172.22323	399.46142	-436.18016	-294.66506	91.70529	-433.58934	-358.99006	57.94853	-478.01780	-171.74986	44.30664	-403.21963	-142.74937	71.33715	-460.25523	-209.74402	503.59744	-776.09200	-169.17462	413.61103	-765.68183	-284.66457	97.15054	-776.44485	-359.73573	54.29409	-731.82413	-178.91195	40.45907	-810.33404	-134.12961	65.44340	-752.33648	-197.44184	288.44499	-434.81571	-234.75630	411.73712	-396.07884	-265.80100	301.84668	-390.62336	-246.01659	442.61891	-806.98980	-271.83345	323.48924	-816.92465	-251.06395	773.22428	-417.22369	-207.60086	672.51909	-429.98979	-243.67551	626.41603	-396.59552	-351.41383	724.51952	-397.39866	-298.02224	621.91348	-410.25553	-317.85018	713.31532	-811.59075	-170.04223	629.13904	-752.46719	-227.68539	755.63587	-765.46766	-265.18175	592.03666	-789.95317	-250.63973	924.60855	-471.96356	-442.01295	1002.81126	-550.72888	-255.41554	930.09444	-723.71985	-440.22920	1005.11086	-644.85401	-226.79803	1422.60234	-593.76489	-161.01242	1376.73760	-430.32429	-146.04027	1367.62925	-738.64208	-126.53584	1316.81053	-562.72097	-124.86099	1317.37040	-609.89477	-153.58647	1247.01562	-371.98467	-280.70435	1068.28270	-398.87076	-270.17928	1074.27333	-323.96059	-173.61375	1078.64778	-334.33409	-31.85774	1089.15331	-418.85091	-32.48590	1047.85093	-391.24990	-150.16097	1231.30509	-800.69342	-272.02096	1053.61121	-773.49966	-247.93524	1067.26690	-849.12522	-172.45186	1075.59266	-843.05108	-22.40498	1092.68436	-771.80011	-23.62861	1049.69538	-799.50058	-350.97077	858.52449	-497.91528	-350.70259	862.67734	-687.43211	-341.04787	866.36149	-510.54272	-337.90040	870.42126	-676.69081	
892	8.91000000	-206.36436	495.09925	-432.78165	-171.65671	398.46287	-436.39442	-294.78499	91.35983	-433.30224	-359.19812	57.64971	-477.61628	-171.86328	44.42201	-403.00189	-142.99052	71.51000	-460.13419	-210.33664	503.13020	-777.24794	-169.07697	412.74214	-766.42249	-285.03064	96.78666	-776.64992	-359.85893	53.63759	-732.18768	-179.01018	40.46809	-810.40329	-134.47424	65.93128	-752.63081	-197.19885	287.48720	-434.93602	-234.26886	410.93295	-396.01728	-265.28492	301.07940	-390.71250	-246.08310	442.19574	-808.46779	-272.03612	322.66398	-817.46233	-257.00323	771.28826	-415.44181	-211.50995	670.98311	-429.31113	-246.78515	624.48891	-396.39570	-356.67033	720.29454	-396.94210	-301.06081	618.71763	-409.94923	-323.04279	710.04457	-811.63500	-173.04572	629.01329	-752.75869	-233.89193	754.55500	-765.69861	-267.52414	590.12497	-790.46020	-257.10095	918.54545	-471.71179	-447.20161	1000.15016	-550.26896	-262.57205	923.90922	-723.64614	-445.86808	1002.38110	-643.88916	-222.17560	1414.38479	-592.92733	-156.15928	1367.16494	-429.81645	-141.92753	1357.51847	-737.02572	-123.84241	1306.29580	-562.13507	-122.25952	1306.80841	-609.03625	-150.30936	1237.09545	-372.11599	-280.70949	1060.63411	-397.92318	-269.23269	1065.93671	-323.70302	-172.75042	1070.16446	-333.63231	-30.71182	1081.17326	-418.15559	-31.43946	1039.51357	-390.57993	-147.47101	1221.40356	-798.98019	-271.99812	1046.13500	-772.28665	-247.88486	1059.19678	-848.48729	-172.45363	1067.09991	-842.63744	-22.16492	1083.90958	-771.28941	-23.72258	1040.99690	-799.19329	-358.69885	854.28287	-497.37366	-358.98948	858.27906	-686.89392	-348.54030	861.83157	-509.84341	-346.17159	865.79133	-676.13328	
893	8.92000000	-206.48604	493.98235	-432.71840	-171.04359	397.74687	-436.62091	-294.84380	91.18194	-433.20045	-359.32752	57.45877	-477.45394	-171.98135	44.43991	-402.99328	-143.13297	71.63223	-460.13559	-211.07509	502.31487	-777.79617	-168.99251	411.84847	-766.99782	-285.32950	96.53843	-776.77135	-360.01486	52.84311	-731.89781	-179.10863	40.50818	-810.46479	-134.74385	66.29982	-752.89668	-196.80820	286.77971	-435.11372	-233.65617	410.29202	-396.00159	-264.65030	300.34512	-390.47399	-246.02274	441.40920	-809.30316	-272.15575	321.85218	-818.15204	-262.81381	769.30478	-413.60902	-215.48536	669.36876	-428.60236	-249.85262	622.36668	-396.14060	-361.79698	715.69963	-396.77641	-304.07287	615.43711	-409.74594	-328.35614	706.69992	-811.72631	-176.26903	629.04755	-753.30625	-240.12107	753.27894	-766.17099	-269.95820	588.15669	-791.08741	-263.61342	912.02885	-471.61478	-452.43748	997.30763	-549.43863	-269.73188	917.42312	-723.72594	-451.36620	999.34526	-642.91286	-217.61339	1405.68119	-591.75436	-151.53636	1356.95292	-429.20794	-137.97599	1346.85128	-735.81206	-121.33671	1295.37491	-561.55866	-119.76012	1295.82915	-608.24569	-147.24314	1226.30783	-372.10671	-279.97234	1051.72541	-397.52269	-268.37698	1057.05639	-323.62680	-171.77770	1060.91504	-333.28388	-29.71403	1072.61234	-417.46463	-30.48102	1030.96474	-390.02310	-145.10546	1210.70553	-797.27394	-272.03727	1039.10985	-770.05928	-248.05572	1050.44245	-847.78867	-172.68960	1057.96181	-842.28431	-21.85703	1074.53747	-770.39978	-24.03307	1031.70024	-798.83688	-366.43963	849.69283	-496.88263	-367.39238	853.68307	-686.40073	-356.29811	857.21153	-509.38276	-354.39013	860.83874	-675.81289	
